<svg xmlns="http://www.w3.org/2000/svg" width="156" height="51" viewBox="0 0 156 51" fill="none"><circle cx="25.5" cy="25.7266" r="25" fill="#00BF7A"></circle><g clip-path="url(#clip0_109_26)"><path d="M25.5 10.7266C17.2158 10.7266 10.5 17.4424 10.5 25.7266C10.5 34.0107 17.2158 40.7266 25.5 40.7266C33.7842 40.7266 40.5 34.0107 40.5 25.7266C40.4907 17.4463 33.7803 10.7358 25.5 10.7266ZM26.0354 15.051L31.25 12.9666C31.8418 13.2344 32.4143 13.543 32.9634 13.8901L32.9771 13.8987C33.5166 14.2405 34.0322 14.6187 34.5205 15.0305L34.5625 15.0671C34.7815 15.2537 34.9944 15.4468 35.2014 15.646C35.2275 15.6716 35.2549 15.696 35.281 15.7222C35.498 15.9341 35.7083 16.1526 35.9116 16.3774C35.9285 16.3965 35.9446 16.4165 35.9614 16.4355C36.1399 16.6355 36.3115 16.8425 36.478 17.053C36.5181 17.103 36.5581 17.1531 36.5969 17.2031C36.7776 17.437 36.9524 17.675 37.1174 17.9207L36.0779 22.3396L30.9634 24.0447L26.0366 20.1025L26.0354 15.051ZM14.4026 17.2061C14.4414 17.156 14.481 17.106 14.521 17.0562C14.6855 16.8474 14.8557 16.6438 15.0315 16.4451C15.0505 16.4241 15.0681 16.4026 15.0869 16.3816C15.2891 16.1562 15.4983 15.938 15.7151 15.7266C15.74 15.7021 15.7649 15.6765 15.791 15.6541C15.9963 15.4561 16.2075 15.2642 16.4246 15.0786L16.4746 15.0366C16.9585 14.6277 17.4692 14.252 18.0034 13.9116L18.0229 13.8992C18.5688 13.5527 19.1377 13.2446 19.7261 12.9766L24.9646 15.051V20.1011L20.0376 24.0425L14.9231 22.3406L13.8835 17.9216C14.05 17.6765 14.2229 17.439 14.4026 17.2061ZM13.8 33.3992C13.6531 33.175 13.5125 32.9468 13.3784 32.7141L13.3459 32.658C13.2126 32.4265 13.0864 32.1912 12.9675 31.9521L12.9634 31.9446C12.7129 31.4417 12.4929 30.9241 12.3049 30.3945V30.3896C12.2161 30.1396 12.135 29.8835 12.0601 29.626L12.033 29.531C11.9644 29.2891 11.9021 29.0444 11.8464 28.7971C11.8416 28.7729 11.8354 28.75 11.8306 28.7261C11.7078 28.1675 11.6196 27.6021 11.5664 27.0325L14.6189 23.3696L19.698 25.0625L21.1721 30.9585L18.75 34.1812L13.8 33.3992ZM28.8296 39.323C28.5796 39.385 28.323 39.4385 28.0664 39.4866C28.0305 39.4937 27.9939 39.4995 27.958 39.5061C27.7395 39.5452 27.5186 39.5786 27.2971 39.606C27.238 39.6135 27.1794 39.6216 27.1206 39.6287C26.915 39.6526 26.7075 39.6707 26.4995 39.6855C26.4341 39.6899 26.3694 39.6965 26.304 39.7007C26.0381 39.717 25.77 39.7266 25.5 39.7266C25.2527 39.7266 25.0068 39.72 24.7625 39.707C24.7329 39.707 24.7046 39.7021 24.675 39.7C24.4575 39.6875 24.241 39.6711 24.0249 39.6501L24 39.6455C23.5266 39.5942 23.0559 39.519 22.5901 39.4207L19.6326 34.79L22.0166 31.6111H28.9834L31.4065 34.811L28.8296 39.323ZM39.1731 28.7266C39.168 28.7505 39.1621 28.7737 39.157 28.7976C39.1011 29.0447 39.0388 29.2893 38.9705 29.5315L38.9436 29.6265C38.8684 29.884 38.7876 30.1392 38.6985 30.3901V30.395C38.5105 30.9246 38.2908 31.4421 38.04 31.9451L38.0359 31.9526C37.9163 32.1919 37.7903 32.4272 37.6575 32.6584L37.625 32.7146C37.4917 32.948 37.3513 33.1758 37.2041 33.3987L32.271 34.1765L29.832 30.9565L31.3054 25.062L36.3845 23.3691L39.437 27.032C39.384 27.6018 39.2959 28.1677 39.1731 28.7266Z" fill="white"></path></g><path d="M65.648 16.1266H73.796V18.9266H68.728V24.3866H72.704V27.1866H68.728V35.7266H65.648V16.1266ZM79.725 36.0066C78.213 36.0066 77.0557 35.5772 76.253 34.7186C75.4503 33.8599 75.049 32.6466 75.049 31.0786V20.7746C75.049 19.2066 75.4503 17.9932 76.253 17.1346C77.0557 16.2759 78.213 15.8466 79.725 15.8466C81.237 15.8466 82.3943 16.2759 83.197 17.1346C83.9997 17.9932 84.401 19.2066 84.401 20.7746V31.0786C84.401 32.6466 83.9997 33.8599 83.197 34.7186C82.3943 35.5772 81.237 36.0066 79.725 36.0066ZM79.725 33.2066C80.789 33.2066 81.321 32.5626 81.321 31.2746V20.5786C81.321 19.2906 80.789 18.6466 79.725 18.6466C78.661 18.6466 78.129 19.2906 78.129 20.5786V31.2746C78.129 32.5626 78.661 33.2066 79.725 33.2066ZM90.9359 36.0066C89.4239 36.0066 88.2666 35.5772 87.4639 34.7186C86.6613 33.8599 86.2599 32.6466 86.2599 31.0786V20.7746C86.2599 19.2066 86.6613 17.9932 87.4639 17.1346C88.2666 16.2759 89.4239 15.8466 90.9359 15.8466C92.4479 15.8466 93.6053 16.2759 94.4079 17.1346C95.2106 17.9932 95.6119 19.2066 95.6119 20.7746V31.0786C95.6119 32.6466 95.2106 33.8599 94.4079 34.7186C93.6053 35.5772 92.4479 36.0066 90.9359 36.0066ZM90.9359 33.2066C91.9999 33.2066 92.5319 32.5626 92.5319 31.2746V20.5786C92.5319 19.2906 91.9999 18.6466 90.9359 18.6466C89.8719 18.6466 89.3399 19.2906 89.3399 20.5786V31.2746C89.3399 32.5626 89.8719 33.2066 90.9359 33.2066ZM99.9935 18.9266H96.7735V16.1266H106.294V18.9266H103.074V35.7266H99.9935V18.9266ZM112.015 36.0066C110.541 36.0066 109.411 35.5866 108.627 34.7466C107.862 33.9066 107.479 32.7212 107.479 31.1906V20.6626C107.479 19.1319 107.862 17.9466 108.627 17.1066C109.411 16.2666 110.541 15.8466 112.015 15.8466C113.49 15.8466 114.61 16.2666 115.375 17.1066C116.159 17.9466 116.551 19.1319 116.551 20.6626V22.7346H113.639V20.4666C113.639 19.2532 113.126 18.6466 112.099 18.6466C111.073 18.6466 110.559 19.2532 110.559 20.4666V31.4146C110.559 32.6092 111.073 33.2066 112.099 33.2066C113.126 33.2066 113.639 32.6092 113.639 31.4146V28.4186H116.551V31.1906C116.551 32.7212 116.159 33.9066 115.375 34.7466C114.61 35.5866 113.49 36.0066 112.015 36.0066ZM118.394 16.1266H121.474V32.9266H126.542V35.7266H118.394V16.1266ZM132.499 36.0066C131.006 36.0066 129.867 35.5866 129.083 34.7466C128.299 33.8879 127.907 32.6652 127.907 31.0786V16.1266H130.987V31.3026C130.987 31.9746 131.118 32.4599 131.379 32.7586C131.659 33.0572 132.051 33.2066 132.555 33.2066C133.059 33.2066 133.442 33.0572 133.703 32.7586C133.983 32.4599 134.123 31.9746 134.123 31.3026V16.1266H137.091V31.0786C137.091 32.6652 136.699 33.8879 135.915 34.7466C135.131 35.5866 133.992 36.0066 132.499 36.0066ZM139.285 16.1266H143.933C145.519 16.1266 146.677 16.4999 147.405 17.2466C148.133 17.9746 148.497 19.1039 148.497 20.6346V21.4186C148.497 22.4266 148.329 23.2479 147.993 23.8826C147.675 24.5172 147.181 24.9746 146.509 25.2546V25.3106C148.039 25.8332 148.805 27.1959 148.805 29.3986V31.0786C148.805 32.5906 148.403 33.7479 147.601 34.5506C146.817 35.3346 145.659 35.7266 144.129 35.7266H139.285V16.1266ZM143.569 24.1066C144.185 24.1066 144.642 23.9479 144.941 23.6306C145.258 23.3132 145.417 22.7812 145.417 22.0346V20.9426C145.417 20.2332 145.286 19.7199 145.025 19.4026C144.782 19.0852 144.39 18.9266 143.849 18.9266H142.365V24.1066H143.569ZM144.129 32.9266C144.67 32.9266 145.071 32.7866 145.333 32.5066C145.594 32.2079 145.725 31.7039 145.725 30.9946V29.2866C145.725 28.3906 145.566 27.7746 145.249 27.4386C144.95 27.0839 144.446 26.9066 143.737 26.9066H142.365V32.9266H144.129Z" fill="white"></path><path d="M150.605 32.7586H153.573V35.7266H150.605V32.7586Z" fill="#00BF7A"></path><defs><clipPath id="clip0_109_26"><rect width="30" height="30" fill="white" transform="translate(10.5 10.7266)"></rect></clipPath></defs></svg>